<mxfile host="app.diagrams.net" modified="2023-04-28T08:07:38.762Z" agent="Mozilla/5.0 (Windows NT 10.0; Win64; x64) AppleWebKit/537.36 (KHTML, like Gecko) Chrome/112.0.0.0 Safari/537.36" etag="TTNbVXAe8FMK3K1_Asy7" version="21.2.3" type="device">
  <diagram name="PÃ¡gina-1" id="zxR1E4PuoslXI2ryRVlc">
    <mxGraphModel dx="1754" dy="1066" grid="0" gridSize="10" guides="1" tooltips="1" connect="1" arrows="1" fold="1" page="0" pageScale="1" pageWidth="827" pageHeight="1169" math="0" shadow="0">
      <root>
        <mxCell id="0" />
        <mxCell id="1" parent="0" />
        <mxCell id="tQVnBSjPcBwG4hLKsojT-46" style="edgeStyle=none;curved=1;rounded=0;orthogonalLoop=1;jettySize=auto;html=1;entryX=0;entryY=0.5;entryDx=0;entryDy=0;fontSize=12;startSize=8;endSize=8;" edge="1" parent="1" source="tQVnBSjPcBwG4hLKsojT-1" target="tQVnBSjPcBwG4hLKsojT-43">
          <mxGeometry relative="1" as="geometry" />
        </mxCell>
        <mxCell id="tQVnBSjPcBwG4hLKsojT-1" value="Clientes" style="shape=table;startSize=30;container=1;collapsible=1;childLayout=tableLayout;fixedRows=1;rowLines=0;fontStyle=1;align=center;resizeLast=1;html=1;fontSize=16;" vertex="1" parent="1">
          <mxGeometry x="82" y="-99" width="180" height="180" as="geometry" />
        </mxCell>
        <mxCell id="tQVnBSjPcBwG4hLKsojT-2" value="" style="shape=tableRow;horizontal=0;startSize=0;swimlaneHead=0;swimlaneBody=0;fillColor=none;collapsible=0;dropTarget=0;points=[[0,0.5],[1,0.5]];portConstraint=eastwest;top=0;left=0;right=0;bottom=1;fontSize=16;" vertex="1" parent="tQVnBSjPcBwG4hLKsojT-1">
          <mxGeometry y="30" width="180" height="30" as="geometry" />
        </mxCell>
        <mxCell id="tQVnBSjPcBwG4hLKsojT-3" value="PK" style="shape=partialRectangle;connectable=0;fillColor=none;top=0;left=0;bottom=0;right=0;fontStyle=1;overflow=hidden;whiteSpace=wrap;html=1;fontSize=16;" vertex="1" parent="tQVnBSjPcBwG4hLKsojT-2">
          <mxGeometry width="30" height="30" as="geometry">
            <mxRectangle width="30" height="30" as="alternateBounds" />
          </mxGeometry>
        </mxCell>
        <mxCell id="tQVnBSjPcBwG4hLKsojT-4" value="id" style="shape=partialRectangle;connectable=0;fillColor=none;top=0;left=0;bottom=0;right=0;align=left;spacingLeft=6;fontStyle=5;overflow=hidden;whiteSpace=wrap;html=1;fontSize=16;" vertex="1" parent="tQVnBSjPcBwG4hLKsojT-2">
          <mxGeometry x="30" width="150" height="30" as="geometry">
            <mxRectangle width="150" height="30" as="alternateBounds" />
          </mxGeometry>
        </mxCell>
        <mxCell id="tQVnBSjPcBwG4hLKsojT-5" value="" style="shape=tableRow;horizontal=0;startSize=0;swimlaneHead=0;swimlaneBody=0;fillColor=none;collapsible=0;dropTarget=0;points=[[0,0.5],[1,0.5]];portConstraint=eastwest;top=0;left=0;right=0;bottom=0;fontSize=16;" vertex="1" parent="tQVnBSjPcBwG4hLKsojT-1">
          <mxGeometry y="60" width="180" height="30" as="geometry" />
        </mxCell>
        <mxCell id="tQVnBSjPcBwG4hLKsojT-6" value="" style="shape=partialRectangle;connectable=0;fillColor=none;top=0;left=0;bottom=0;right=0;editable=1;overflow=hidden;whiteSpace=wrap;html=1;fontSize=16;" vertex="1" parent="tQVnBSjPcBwG4hLKsojT-5">
          <mxGeometry width="30" height="30" as="geometry">
            <mxRectangle width="30" height="30" as="alternateBounds" />
          </mxGeometry>
        </mxCell>
        <mxCell id="tQVnBSjPcBwG4hLKsojT-7" value="dni" style="shape=partialRectangle;connectable=0;fillColor=none;top=0;left=0;bottom=0;right=0;align=left;spacingLeft=6;overflow=hidden;whiteSpace=wrap;html=1;fontSize=16;" vertex="1" parent="tQVnBSjPcBwG4hLKsojT-5">
          <mxGeometry x="30" width="150" height="30" as="geometry">
            <mxRectangle width="150" height="30" as="alternateBounds" />
          </mxGeometry>
        </mxCell>
        <mxCell id="tQVnBSjPcBwG4hLKsojT-8" value="" style="shape=tableRow;horizontal=0;startSize=0;swimlaneHead=0;swimlaneBody=0;fillColor=none;collapsible=0;dropTarget=0;points=[[0,0.5],[1,0.5]];portConstraint=eastwest;top=0;left=0;right=0;bottom=0;fontSize=16;" vertex="1" parent="tQVnBSjPcBwG4hLKsojT-1">
          <mxGeometry y="90" width="180" height="30" as="geometry" />
        </mxCell>
        <mxCell id="tQVnBSjPcBwG4hLKsojT-9" value="" style="shape=partialRectangle;connectable=0;fillColor=none;top=0;left=0;bottom=0;right=0;editable=1;overflow=hidden;whiteSpace=wrap;html=1;fontSize=16;" vertex="1" parent="tQVnBSjPcBwG4hLKsojT-8">
          <mxGeometry width="30" height="30" as="geometry">
            <mxRectangle width="30" height="30" as="alternateBounds" />
          </mxGeometry>
        </mxCell>
        <mxCell id="tQVnBSjPcBwG4hLKsojT-10" value="name" style="shape=partialRectangle;connectable=0;fillColor=none;top=0;left=0;bottom=0;right=0;align=left;spacingLeft=6;overflow=hidden;whiteSpace=wrap;html=1;fontSize=16;" vertex="1" parent="tQVnBSjPcBwG4hLKsojT-8">
          <mxGeometry x="30" width="150" height="30" as="geometry">
            <mxRectangle width="150" height="30" as="alternateBounds" />
          </mxGeometry>
        </mxCell>
        <mxCell id="tQVnBSjPcBwG4hLKsojT-11" value="" style="shape=tableRow;horizontal=0;startSize=0;swimlaneHead=0;swimlaneBody=0;fillColor=none;collapsible=0;dropTarget=0;points=[[0,0.5],[1,0.5]];portConstraint=eastwest;top=0;left=0;right=0;bottom=0;fontSize=16;" vertex="1" parent="tQVnBSjPcBwG4hLKsojT-1">
          <mxGeometry y="120" width="180" height="30" as="geometry" />
        </mxCell>
        <mxCell id="tQVnBSjPcBwG4hLKsojT-12" value="" style="shape=partialRectangle;connectable=0;fillColor=none;top=0;left=0;bottom=0;right=0;editable=1;overflow=hidden;whiteSpace=wrap;html=1;fontSize=16;" vertex="1" parent="tQVnBSjPcBwG4hLKsojT-11">
          <mxGeometry width="30" height="30" as="geometry">
            <mxRectangle width="30" height="30" as="alternateBounds" />
          </mxGeometry>
        </mxCell>
        <mxCell id="tQVnBSjPcBwG4hLKsojT-13" value="phoneNum" style="shape=partialRectangle;connectable=0;fillColor=none;top=0;left=0;bottom=0;right=0;align=left;spacingLeft=6;overflow=hidden;whiteSpace=wrap;html=1;fontSize=16;" vertex="1" parent="tQVnBSjPcBwG4hLKsojT-11">
          <mxGeometry x="30" width="150" height="30" as="geometry">
            <mxRectangle width="150" height="30" as="alternateBounds" />
          </mxGeometry>
        </mxCell>
        <mxCell id="tQVnBSjPcBwG4hLKsojT-49" value="" style="shape=tableRow;horizontal=0;startSize=0;swimlaneHead=0;swimlaneBody=0;fillColor=none;collapsible=0;dropTarget=0;points=[[0,0.5],[1,0.5]];portConstraint=eastwest;top=0;left=0;right=0;bottom=0;fontSize=16;" vertex="1" parent="tQVnBSjPcBwG4hLKsojT-1">
          <mxGeometry y="150" width="180" height="30" as="geometry" />
        </mxCell>
        <mxCell id="tQVnBSjPcBwG4hLKsojT-50" value="" style="shape=partialRectangle;connectable=0;fillColor=none;top=0;left=0;bottom=0;right=0;editable=1;overflow=hidden;whiteSpace=wrap;html=1;fontSize=16;" vertex="1" parent="tQVnBSjPcBwG4hLKsojT-49">
          <mxGeometry width="30" height="30" as="geometry">
            <mxRectangle width="30" height="30" as="alternateBounds" />
          </mxGeometry>
        </mxCell>
        <mxCell id="tQVnBSjPcBwG4hLKsojT-51" value="email" style="shape=partialRectangle;connectable=0;fillColor=none;top=0;left=0;bottom=0;right=0;align=left;spacingLeft=6;overflow=hidden;whiteSpace=wrap;html=1;fontSize=16;" vertex="1" parent="tQVnBSjPcBwG4hLKsojT-49">
          <mxGeometry x="30" width="150" height="30" as="geometry">
            <mxRectangle width="150" height="30" as="alternateBounds" />
          </mxGeometry>
        </mxCell>
        <mxCell id="tQVnBSjPcBwG4hLKsojT-45" style="edgeStyle=none;curved=1;rounded=0;orthogonalLoop=1;jettySize=auto;html=1;entryX=0;entryY=0.5;entryDx=0;entryDy=0;fontSize=12;startSize=8;endSize=8;" edge="1" parent="1" source="tQVnBSjPcBwG4hLKsojT-14" target="tQVnBSjPcBwG4hLKsojT-44">
          <mxGeometry relative="1" as="geometry" />
        </mxCell>
        <mxCell id="tQVnBSjPcBwG4hLKsojT-14" value="Odontologo" style="shape=table;startSize=30;container=1;collapsible=1;childLayout=tableLayout;fixedRows=1;rowLines=0;fontStyle=1;align=center;resizeLast=1;html=1;fontSize=16;" vertex="1" parent="1">
          <mxGeometry x="-120" y="208" width="180" height="180" as="geometry" />
        </mxCell>
        <mxCell id="tQVnBSjPcBwG4hLKsojT-15" value="" style="shape=tableRow;horizontal=0;startSize=0;swimlaneHead=0;swimlaneBody=0;fillColor=none;collapsible=0;dropTarget=0;points=[[0,0.5],[1,0.5]];portConstraint=eastwest;top=0;left=0;right=0;bottom=1;fontSize=16;" vertex="1" parent="tQVnBSjPcBwG4hLKsojT-14">
          <mxGeometry y="30" width="180" height="30" as="geometry" />
        </mxCell>
        <mxCell id="tQVnBSjPcBwG4hLKsojT-16" value="PK" style="shape=partialRectangle;connectable=0;fillColor=none;top=0;left=0;bottom=0;right=0;fontStyle=1;overflow=hidden;whiteSpace=wrap;html=1;fontSize=16;" vertex="1" parent="tQVnBSjPcBwG4hLKsojT-15">
          <mxGeometry width="30" height="30" as="geometry">
            <mxRectangle width="30" height="30" as="alternateBounds" />
          </mxGeometry>
        </mxCell>
        <mxCell id="tQVnBSjPcBwG4hLKsojT-17" value="codigo" style="shape=partialRectangle;connectable=0;fillColor=none;top=0;left=0;bottom=0;right=0;align=left;spacingLeft=6;fontStyle=5;overflow=hidden;whiteSpace=wrap;html=1;fontSize=16;" vertex="1" parent="tQVnBSjPcBwG4hLKsojT-15">
          <mxGeometry x="30" width="150" height="30" as="geometry">
            <mxRectangle width="150" height="30" as="alternateBounds" />
          </mxGeometry>
        </mxCell>
        <mxCell id="tQVnBSjPcBwG4hLKsojT-18" value="" style="shape=tableRow;horizontal=0;startSize=0;swimlaneHead=0;swimlaneBody=0;fillColor=none;collapsible=0;dropTarget=0;points=[[0,0.5],[1,0.5]];portConstraint=eastwest;top=0;left=0;right=0;bottom=0;fontSize=16;" vertex="1" parent="tQVnBSjPcBwG4hLKsojT-14">
          <mxGeometry y="60" width="180" height="30" as="geometry" />
        </mxCell>
        <mxCell id="tQVnBSjPcBwG4hLKsojT-19" value="" style="shape=partialRectangle;connectable=0;fillColor=none;top=0;left=0;bottom=0;right=0;editable=1;overflow=hidden;whiteSpace=wrap;html=1;fontSize=16;" vertex="1" parent="tQVnBSjPcBwG4hLKsojT-18">
          <mxGeometry width="30" height="30" as="geometry">
            <mxRectangle width="30" height="30" as="alternateBounds" />
          </mxGeometry>
        </mxCell>
        <mxCell id="tQVnBSjPcBwG4hLKsojT-20" value="dni" style="shape=partialRectangle;connectable=0;fillColor=none;top=0;left=0;bottom=0;right=0;align=left;spacingLeft=6;overflow=hidden;whiteSpace=wrap;html=1;fontSize=16;" vertex="1" parent="tQVnBSjPcBwG4hLKsojT-18">
          <mxGeometry x="30" width="150" height="30" as="geometry">
            <mxRectangle width="150" height="30" as="alternateBounds" />
          </mxGeometry>
        </mxCell>
        <mxCell id="tQVnBSjPcBwG4hLKsojT-21" value="" style="shape=tableRow;horizontal=0;startSize=0;swimlaneHead=0;swimlaneBody=0;fillColor=none;collapsible=0;dropTarget=0;points=[[0,0.5],[1,0.5]];portConstraint=eastwest;top=0;left=0;right=0;bottom=0;fontSize=16;" vertex="1" parent="tQVnBSjPcBwG4hLKsojT-14">
          <mxGeometry y="90" width="180" height="30" as="geometry" />
        </mxCell>
        <mxCell id="tQVnBSjPcBwG4hLKsojT-22" value="" style="shape=partialRectangle;connectable=0;fillColor=none;top=0;left=0;bottom=0;right=0;editable=1;overflow=hidden;whiteSpace=wrap;html=1;fontSize=16;" vertex="1" parent="tQVnBSjPcBwG4hLKsojT-21">
          <mxGeometry width="30" height="30" as="geometry">
            <mxRectangle width="30" height="30" as="alternateBounds" />
          </mxGeometry>
        </mxCell>
        <mxCell id="tQVnBSjPcBwG4hLKsojT-23" value="name" style="shape=partialRectangle;connectable=0;fillColor=none;top=0;left=0;bottom=0;right=0;align=left;spacingLeft=6;overflow=hidden;whiteSpace=wrap;html=1;fontSize=16;" vertex="1" parent="tQVnBSjPcBwG4hLKsojT-21">
          <mxGeometry x="30" width="150" height="30" as="geometry">
            <mxRectangle width="150" height="30" as="alternateBounds" />
          </mxGeometry>
        </mxCell>
        <mxCell id="tQVnBSjPcBwG4hLKsojT-24" value="" style="shape=tableRow;horizontal=0;startSize=0;swimlaneHead=0;swimlaneBody=0;fillColor=none;collapsible=0;dropTarget=0;points=[[0,0.5],[1,0.5]];portConstraint=eastwest;top=0;left=0;right=0;bottom=0;fontSize=16;" vertex="1" parent="tQVnBSjPcBwG4hLKsojT-14">
          <mxGeometry y="120" width="180" height="30" as="geometry" />
        </mxCell>
        <mxCell id="tQVnBSjPcBwG4hLKsojT-25" value="" style="shape=partialRectangle;connectable=0;fillColor=none;top=0;left=0;bottom=0;right=0;editable=1;overflow=hidden;whiteSpace=wrap;html=1;fontSize=16;" vertex="1" parent="tQVnBSjPcBwG4hLKsojT-24">
          <mxGeometry width="30" height="30" as="geometry">
            <mxRectangle width="30" height="30" as="alternateBounds" />
          </mxGeometry>
        </mxCell>
        <mxCell id="tQVnBSjPcBwG4hLKsojT-26" value="phoneNum" style="shape=partialRectangle;connectable=0;fillColor=none;top=0;left=0;bottom=0;right=0;align=left;spacingLeft=6;overflow=hidden;whiteSpace=wrap;html=1;fontSize=16;" vertex="1" parent="tQVnBSjPcBwG4hLKsojT-24">
          <mxGeometry x="30" width="150" height="30" as="geometry">
            <mxRectangle width="150" height="30" as="alternateBounds" />
          </mxGeometry>
        </mxCell>
        <mxCell id="tQVnBSjPcBwG4hLKsojT-55" value="" style="shape=tableRow;horizontal=0;startSize=0;swimlaneHead=0;swimlaneBody=0;fillColor=none;collapsible=0;dropTarget=0;points=[[0,0.5],[1,0.5]];portConstraint=eastwest;top=0;left=0;right=0;bottom=0;fontSize=16;" vertex="1" parent="tQVnBSjPcBwG4hLKsojT-14">
          <mxGeometry y="150" width="180" height="30" as="geometry" />
        </mxCell>
        <mxCell id="tQVnBSjPcBwG4hLKsojT-56" value="" style="shape=partialRectangle;connectable=0;fillColor=none;top=0;left=0;bottom=0;right=0;editable=1;overflow=hidden;whiteSpace=wrap;html=1;fontSize=16;" vertex="1" parent="tQVnBSjPcBwG4hLKsojT-55">
          <mxGeometry width="30" height="30" as="geometry">
            <mxRectangle width="30" height="30" as="alternateBounds" />
          </mxGeometry>
        </mxCell>
        <mxCell id="tQVnBSjPcBwG4hLKsojT-57" value="email" style="shape=partialRectangle;connectable=0;fillColor=none;top=0;left=0;bottom=0;right=0;align=left;spacingLeft=6;overflow=hidden;whiteSpace=wrap;html=1;fontSize=16;" vertex="1" parent="tQVnBSjPcBwG4hLKsojT-55">
          <mxGeometry x="30" width="150" height="30" as="geometry">
            <mxRectangle width="150" height="30" as="alternateBounds" />
          </mxGeometry>
        </mxCell>
        <mxCell id="tQVnBSjPcBwG4hLKsojT-48" style="edgeStyle=none;curved=1;rounded=0;orthogonalLoop=1;jettySize=auto;html=1;entryX=0.65;entryY=0.133;entryDx=0;entryDy=0;entryPerimeter=0;fontSize=12;" edge="1" parent="1" source="tQVnBSjPcBwG4hLKsojT-27" target="tQVnBSjPcBwG4hLKsojT-44">
          <mxGeometry relative="1" as="geometry" />
        </mxCell>
        <mxCell id="tQVnBSjPcBwG4hLKsojT-27" value="Visita" style="shape=table;startSize=30;container=1;collapsible=1;childLayout=tableLayout;fixedRows=1;rowLines=0;fontStyle=1;align=center;resizeLast=1;html=1;whiteSpace=wrap;fontSize=16;" vertex="1" parent="1">
          <mxGeometry x="410" y="95" width="230" height="204" as="geometry" />
        </mxCell>
        <mxCell id="tQVnBSjPcBwG4hLKsojT-28" value="" style="shape=tableRow;horizontal=0;startSize=0;swimlaneHead=0;swimlaneBody=0;fillColor=none;collapsible=0;dropTarget=0;points=[[0,0.5],[1,0.5]];portConstraint=eastwest;top=0;left=0;right=0;bottom=0;html=1;fontSize=16;" vertex="1" parent="tQVnBSjPcBwG4hLKsojT-27">
          <mxGeometry y="30" width="230" height="30" as="geometry" />
        </mxCell>
        <mxCell id="tQVnBSjPcBwG4hLKsojT-29" value="FK1" style="shape=partialRectangle;connectable=0;fillColor=none;top=0;left=0;bottom=0;right=0;fontStyle=1;overflow=hidden;html=1;whiteSpace=wrap;fontSize=16;" vertex="1" parent="tQVnBSjPcBwG4hLKsojT-28">
          <mxGeometry width="62.75" height="30" as="geometry">
            <mxRectangle width="62.75" height="30" as="alternateBounds" />
          </mxGeometry>
        </mxCell>
        <mxCell id="tQVnBSjPcBwG4hLKsojT-30" value="id_cliente" style="shape=partialRectangle;connectable=0;fillColor=none;top=0;left=0;bottom=0;right=0;align=left;spacingLeft=6;fontStyle=5;overflow=hidden;html=1;whiteSpace=wrap;fontSize=16;" vertex="1" parent="tQVnBSjPcBwG4hLKsojT-28">
          <mxGeometry x="62.75" width="167.25" height="30" as="geometry">
            <mxRectangle width="167.25" height="30" as="alternateBounds" />
          </mxGeometry>
        </mxCell>
        <mxCell id="tQVnBSjPcBwG4hLKsojT-31" value="" style="shape=tableRow;horizontal=0;startSize=0;swimlaneHead=0;swimlaneBody=0;fillColor=none;collapsible=0;dropTarget=0;points=[[0,0.5],[1,0.5]];portConstraint=eastwest;top=0;left=0;right=0;bottom=1;html=1;fontSize=16;" vertex="1" parent="tQVnBSjPcBwG4hLKsojT-27">
          <mxGeometry y="60" width="230" height="30" as="geometry" />
        </mxCell>
        <mxCell id="tQVnBSjPcBwG4hLKsojT-32" value="FK2" style="shape=partialRectangle;connectable=0;fillColor=none;top=0;left=0;bottom=0;right=0;fontStyle=1;overflow=hidden;html=1;whiteSpace=wrap;fontSize=16;" vertex="1" parent="tQVnBSjPcBwG4hLKsojT-31">
          <mxGeometry width="62.75" height="30" as="geometry">
            <mxRectangle width="62.75" height="30" as="alternateBounds" />
          </mxGeometry>
        </mxCell>
        <mxCell id="tQVnBSjPcBwG4hLKsojT-33" value="odontologo_codigo" style="shape=partialRectangle;connectable=0;fillColor=none;top=0;left=0;bottom=0;right=0;align=left;spacingLeft=6;fontStyle=5;overflow=hidden;html=1;whiteSpace=wrap;fontSize=16;" vertex="1" parent="tQVnBSjPcBwG4hLKsojT-31">
          <mxGeometry x="62.75" width="167.25" height="30" as="geometry">
            <mxRectangle width="167.25" height="30" as="alternateBounds" />
          </mxGeometry>
        </mxCell>
        <mxCell id="tQVnBSjPcBwG4hLKsojT-40" value="" style="shape=tableRow;horizontal=0;startSize=0;swimlaneHead=0;swimlaneBody=0;fillColor=none;collapsible=0;dropTarget=0;points=[[0,0.5],[1,0.5]];portConstraint=eastwest;top=0;left=0;right=0;bottom=1;html=1;fontSize=16;" vertex="1" parent="tQVnBSjPcBwG4hLKsojT-27">
          <mxGeometry y="90" width="230" height="30" as="geometry" />
        </mxCell>
        <mxCell id="tQVnBSjPcBwG4hLKsojT-41" value="PK" style="shape=partialRectangle;connectable=0;fillColor=none;top=0;left=0;bottom=0;right=0;fontStyle=1;overflow=hidden;html=1;whiteSpace=wrap;fontSize=16;" vertex="1" parent="tQVnBSjPcBwG4hLKsojT-40">
          <mxGeometry width="62.75" height="30" as="geometry">
            <mxRectangle width="62.75" height="30" as="alternateBounds" />
          </mxGeometry>
        </mxCell>
        <mxCell id="tQVnBSjPcBwG4hLKsojT-42" value="id" style="shape=partialRectangle;connectable=0;fillColor=none;top=0;left=0;bottom=0;right=0;align=left;spacingLeft=6;fontStyle=5;overflow=hidden;html=1;whiteSpace=wrap;fontSize=16;" vertex="1" parent="tQVnBSjPcBwG4hLKsojT-40">
          <mxGeometry x="62.75" width="167.25" height="30" as="geometry">
            <mxRectangle width="167.25" height="30" as="alternateBounds" />
          </mxGeometry>
        </mxCell>
        <mxCell id="tQVnBSjPcBwG4hLKsojT-34" value="" style="shape=tableRow;horizontal=0;startSize=0;swimlaneHead=0;swimlaneBody=0;fillColor=none;collapsible=0;dropTarget=0;points=[[0,0.5],[1,0.5]];portConstraint=eastwest;top=0;left=0;right=0;bottom=0;html=1;fontSize=16;" vertex="1" parent="tQVnBSjPcBwG4hLKsojT-27">
          <mxGeometry y="120" width="230" height="30" as="geometry" />
        </mxCell>
        <mxCell id="tQVnBSjPcBwG4hLKsojT-35" value="" style="shape=partialRectangle;connectable=0;fillColor=none;top=0;left=0;bottom=0;right=0;editable=1;overflow=hidden;html=1;whiteSpace=wrap;fontSize=16;" vertex="1" parent="tQVnBSjPcBwG4hLKsojT-34">
          <mxGeometry width="62.75" height="30" as="geometry">
            <mxRectangle width="62.75" height="30" as="alternateBounds" />
          </mxGeometry>
        </mxCell>
        <mxCell id="tQVnBSjPcBwG4hLKsojT-36" value="proceso" style="shape=partialRectangle;connectable=0;fillColor=none;top=0;left=0;bottom=0;right=0;align=left;spacingLeft=6;overflow=hidden;html=1;whiteSpace=wrap;fontSize=16;" vertex="1" parent="tQVnBSjPcBwG4hLKsojT-34">
          <mxGeometry x="62.75" width="167.25" height="30" as="geometry">
            <mxRectangle width="167.25" height="30" as="alternateBounds" />
          </mxGeometry>
        </mxCell>
        <mxCell id="tQVnBSjPcBwG4hLKsojT-37" value="" style="shape=tableRow;horizontal=0;startSize=0;swimlaneHead=0;swimlaneBody=0;fillColor=none;collapsible=0;dropTarget=0;points=[[0,0.5],[1,0.5]];portConstraint=eastwest;top=0;left=0;right=0;bottom=0;html=1;fontSize=16;" vertex="1" parent="tQVnBSjPcBwG4hLKsojT-27">
          <mxGeometry y="150" width="230" height="27" as="geometry" />
        </mxCell>
        <mxCell id="tQVnBSjPcBwG4hLKsojT-38" value="" style="shape=partialRectangle;connectable=0;fillColor=none;top=0;left=0;bottom=0;right=0;editable=1;overflow=hidden;html=1;whiteSpace=wrap;fontSize=16;" vertex="1" parent="tQVnBSjPcBwG4hLKsojT-37">
          <mxGeometry width="62.75" height="27" as="geometry">
            <mxRectangle width="62.75" height="27" as="alternateBounds" />
          </mxGeometry>
        </mxCell>
        <mxCell id="tQVnBSjPcBwG4hLKsojT-39" value="time" style="shape=partialRectangle;connectable=0;fillColor=none;top=0;left=0;bottom=0;right=0;align=left;spacingLeft=6;overflow=hidden;html=1;whiteSpace=wrap;fontSize=16;" vertex="1" parent="tQVnBSjPcBwG4hLKsojT-37">
          <mxGeometry x="62.75" width="167.25" height="27" as="geometry">
            <mxRectangle width="167.25" height="27" as="alternateBounds" />
          </mxGeometry>
        </mxCell>
        <mxCell id="tQVnBSjPcBwG4hLKsojT-58" value="" style="shape=tableRow;horizontal=0;startSize=0;swimlaneHead=0;swimlaneBody=0;fillColor=none;collapsible=0;dropTarget=0;points=[[0,0.5],[1,0.5]];portConstraint=eastwest;top=0;left=0;right=0;bottom=0;html=1;fontSize=16;" vertex="1" parent="tQVnBSjPcBwG4hLKsojT-27">
          <mxGeometry y="177" width="230" height="27" as="geometry" />
        </mxCell>
        <mxCell id="tQVnBSjPcBwG4hLKsojT-59" value="" style="shape=partialRectangle;connectable=0;fillColor=none;top=0;left=0;bottom=0;right=0;editable=1;overflow=hidden;html=1;whiteSpace=wrap;fontSize=16;" vertex="1" parent="tQVnBSjPcBwG4hLKsojT-58">
          <mxGeometry width="62.75" height="27" as="geometry">
            <mxRectangle width="62.75" height="27" as="alternateBounds" />
          </mxGeometry>
        </mxCell>
        <mxCell id="tQVnBSjPcBwG4hLKsojT-60" value="prices" style="shape=partialRectangle;connectable=0;fillColor=none;top=0;left=0;bottom=0;right=0;align=left;spacingLeft=6;overflow=hidden;html=1;whiteSpace=wrap;fontSize=16;" vertex="1" parent="tQVnBSjPcBwG4hLKsojT-58">
          <mxGeometry x="62.75" width="167.25" height="27" as="geometry">
            <mxRectangle width="167.25" height="27" as="alternateBounds" />
          </mxGeometry>
        </mxCell>
        <mxCell id="tQVnBSjPcBwG4hLKsojT-47" style="edgeStyle=none;curved=1;rounded=0;orthogonalLoop=1;jettySize=auto;html=1;fontSize=12;startSize=8;endSize=8;" edge="1" parent="1" source="tQVnBSjPcBwG4hLKsojT-43" target="tQVnBSjPcBwG4hLKsojT-27">
          <mxGeometry relative="1" as="geometry" />
        </mxCell>
        <mxCell id="tQVnBSjPcBwG4hLKsojT-43" value="Concerta" style="shape=rhombus;perimeter=rhombusPerimeter;whiteSpace=wrap;html=1;align=center;fontSize=16;" vertex="1" parent="1">
          <mxGeometry x="333" y="-75" width="120" height="60" as="geometry" />
        </mxCell>
        <mxCell id="tQVnBSjPcBwG4hLKsojT-44" value="Atiende" style="shape=rhombus;perimeter=rhombusPerimeter;whiteSpace=wrap;html=1;align=center;fontSize=16;" vertex="1" parent="1">
          <mxGeometry x="213" y="320" width="120" height="60" as="geometry" />
        </mxCell>
        <mxCell id="tQVnBSjPcBwG4hLKsojT-61" value="1,n" style="text;html=1;align=center;verticalAlign=middle;resizable=0;points=[];autosize=1;strokeColor=none;fillColor=none;fontSize=16;" vertex="1" parent="1">
          <mxGeometry x="267" y="-83" width="40" height="31" as="geometry" />
        </mxCell>
        <mxCell id="tQVnBSjPcBwG4hLKsojT-62" value="1,n" style="text;html=1;align=center;verticalAlign=middle;resizable=0;points=[];autosize=1;strokeColor=none;fillColor=none;fontSize=16;" vertex="1" parent="1">
          <mxGeometry x="92" y="269" width="40" height="31" as="geometry" />
        </mxCell>
        <mxCell id="tQVnBSjPcBwG4hLKsojT-63" value="1,1" style="text;html=1;align=center;verticalAlign=middle;resizable=0;points=[];autosize=1;strokeColor=none;fillColor=none;fontSize=16;" vertex="1" parent="1">
          <mxGeometry x="440" y="-8" width="40" height="31" as="geometry" />
        </mxCell>
        <mxCell id="tQVnBSjPcBwG4hLKsojT-64" value="1,1" style="text;html=1;align=center;verticalAlign=middle;resizable=0;points=[];autosize=1;strokeColor=none;fillColor=none;fontSize=16;" vertex="1" parent="1">
          <mxGeometry x="302" y="263" width="40" height="31" as="geometry" />
        </mxCell>
      </root>
    </mxGraphModel>
  </diagram>
</mxfile>
